<svg width="32" height="33" viewBox="0 0 32 33" fill="none" xmlns="http://www.w3.org/2000/svg">
<path d="M12.951 8.60245L11.3321 4.2854H0.539551V29.648H26.4417V8.60245H12.951Z" fill="white"/>
<path d="M26.9815 30.1876H0V3.74579H11.7099L13.3288 8.06284H26.9814V30.1876H26.9815ZM1.07928 29.1083H25.9022V9.14205H12.5734L10.9545 4.825H1.07928V29.1083Z" fill="#0096E6"/>
<path d="M26.4419 10.7609H31.2986L26.4958 29.54H26.4419V10.7609Z" fill="white"/>
<path d="M26.8732 30.1336L25.9019 30.0257V29.54V10.2213H31.9997L26.8732 30.1336ZM26.9811 11.3006V25.3849L30.5966 11.3006H26.9811Z" fill="#0096E6"/>
<path d="M3.77734 19.395H15.6492V26.4102H3.77734V19.395Z" fill="#D0E8F9"/>
<path d="M16.1889 26.9498H3.23779V18.8554H16.1889V26.9498ZM4.31707 25.8705H15.1097V19.9346H4.31707V25.8705Z" fill="#0096E6"/>
<path d="M10.7928 24.7913H5.93609C5.61231 24.7913 5.39648 24.5755 5.39648 24.2517C5.39648 23.9279 5.61231 23.7121 5.93609 23.7121H10.7928C11.1165 23.7121 11.3324 23.9279 11.3324 24.2517C11.3324 24.5755 11.1165 24.7913 10.7928 24.7913ZM13.4909 22.0931H12.4116C12.0878 22.0931 11.872 21.8773 11.872 21.5535C11.872 21.2297 12.0878 21.0139 12.4116 21.0139H13.4909C13.8146 21.0139 14.0305 21.2297 14.0305 21.5535C14.0305 21.8773 13.8146 22.0931 13.4909 22.0931ZM8.09459 22.0931H5.93609C5.61231 22.0931 5.39648 21.8773 5.39648 21.5535C5.39648 21.2297 5.61231 21.0139 5.93609 21.0139H8.09459C8.41836 21.0139 8.63419 21.2297 8.63419 21.5535C8.63419 21.8773 8.41836 22.0931 8.09459 22.0931Z" fill="#0096E6"/>
</svg>
